<?xml version="1.0" encoding="UTF-8"?>
<svg width="288px" height="28px" viewBox="0 0 288 28" version="1.1" xmlns="http://www.w3.org/2000/svg" xmlns:xlink="http://www.w3.org/1999/xlink">
    <!-- Generator: Sketch 46.2 (44496) - http://www.bohemiancoding.com/sketch -->
    <title>频道口号@svg</title>
    <desc>Created with Sketch.</desc>
    <defs>
      <pattern id="textPattern" width="1" height="3" patternUnits="userSpaceOnUse" patternTransform="rotate(30)">
        <rect x="0" y="0" width="1" height="2" fill="rgb(213,213,213)"></rect>
      </pattern>
      <text id="textContent" x="10" y="300">I Love SVG</text>
    </defs>
    <use x="8" y="8" width="1000" height="400" xlink:href="#textContent" fill="url(#textPattern)"></use>
    <use x="0" y="0" width="1000" height="400" xlink:href="#textContent"></use>
    <g id="Symbols" stroke="none" stroke-width="1" fill="none" fill-rule="evenodd">
        <g id="页面头部" transform="translate(-539.000000, -48.000000)" fill="#FFFFFF">
            <path d="M555.888194,61.4656489 L557.753937,57.6793893 L561.807104,59.4503817 L557.914777,67.0229008 C558.783313,69.2519084 559.748353,71.4503817 560.777728,73.5877863 L562.418296,74.5343511 L556.402882,76 C555.888194,74.9923664 555.405674,73.9236641 554.923154,72.8244275 L553.282587,76 L550.130124,74.4427481 L550.130124,74.9923664 L544.854574,74.9923664 L545.690942,73.8015267 L545.690942,64.5496183 L544.372054,64.5496183 L543.889534,75.7251908 L539,75.5419847 L539.932872,52.9465649 L548.425221,52.9465649 C548.135709,51.6946565 547.814029,50.3816794 547.524517,49.0381679 L552.221043,48 C552.542723,49.5877863 552.960907,51.2671756 553.379091,52.9465649 L561.324584,52.9465649 L561.324584,57.221374 L554.569306,57.221374 C554.98749,58.6259542 555.405674,60.0610687 555.888194,61.4656489 Z M544.725902,57.221374 L544.565062,60.6412214 L550.130124,60.6412214 L550.130124,73.3129771 L552.864403,67.7251908 C551.706355,64.610687 550.580476,61.129771 549.518932,57.221374 L544.725902,57.221374 Z M555.019658,52.1832061 L555.019658,49.0381679 L559.587513,49.0381679 L559.587513,52.1832061 L555.019658,52.1832061 Z M573.355412,75.389313 L573.355412,63.0534351 L570.588965,63.0534351 L570.588965,59.0534351 L573.355412,59.0534351 L573.355412,48.6412214 L578.566626,48.6412214 L578.566626,59.0534351 L593.68558,59.0534351 L593.68558,63.0534351 L585.418407,63.0534351 C587.155479,66.1679389 590.050598,68.2137405 594.618452,70.9923664 L591.723333,75.0839695 C588.281358,73.129771 585.900927,71.1450382 584.196024,69.1908397 L584.196024,73.1908397 L573.355412,75.389313 Z M581.815593,58.5648855 L579.274321,54.8396947 C584.292528,51.9389313 588.313526,48.5801527 588.313526,48.5801527 L591.208645,52.0916031 C587.92751,55.0534351 582.105104,58.5038168 581.815593,58.5648855 Z M583.617,68.4885496 C582.16944,66.6870229 581.268737,64.8854962 580.593209,63.0534351 L578.566626,63.0534351 L578.566626,69.5267176 L583.617,68.4885496 Z M612.503853,49.0381679 L635.600469,49.0381679 L635.600469,75.5725191 L612.503853,75.5725191 L612.503853,49.0381679 Z M622.025578,54.3816794 L626.078745,54.3816794 L626.078745,58.3816794 L629.745895,58.3816794 L629.745895,61.8015267 L626.722104,61.8015267 C627.719312,64.0305344 629.263375,66.3206107 630.421423,67.7251908 L630.421423,53.3740458 L617.6829,53.3740458 L617.6829,67.7251908 C619.580811,65.2824427 620.642355,63.2977099 621.253546,61.8015267 L618.390595,61.8015267 L618.390595,58.3816794 L622.025578,58.3816794 L622.025578,54.3816794 Z M617.6829,71.1755725 L630.421423,71.1755725 L630.421423,68.7938931 L627.783648,70.5343511 C626.110913,68.610687 624.888529,66.6259542 624.052161,64.7633588 C623.183626,66.5038168 621.961242,68.4885496 620.288507,70.5343511 L617.6829,68.7938931 L617.6829,71.1755725 Z M643.996314,75.5419847 L643.996314,49.0381679 L654.965598,49.0381679 L652.520831,59.7251908 C654.032726,62.1068702 654.643918,64.5801527 654.643918,66.7175573 C654.643918,70.351145 652.810343,73.0992366 650.043896,73.0992366 L648.435496,73.0992366 L648.435496,75.5419847 L643.996314,75.5419847 Z M654.740422,54.9312977 L654.740422,51.2366412 L659.018765,51.2366412 L659.018765,48.4885496 L663.554451,48.4885496 L663.554451,51.2366412 L668.090137,51.2366412 L668.090137,54.9312977 L666.642578,54.9312977 L666.642578,58.6870229 L668.636993,58.6870229 L668.636993,62.6564885 L654.161398,62.6564885 L654.161398,58.6870229 L655.930638,58.6870229 L655.930638,54.9312977 L654.740422,54.9312977 Z M655.25511,75.2366412 L655.25511,64.3053435 L667.607618,64.3053435 L667.607618,75.2366412 L655.25511,75.2366412 Z M659.822964,71.2671756 L663.136267,71.2671756 L663.136267,68.3664122 L659.822964,68.3664122 L659.822964,71.2671756 Z M650.076064,66.0458015 C650.076064,64.610687 649.593544,62.6870229 648.435496,60.7022901 L648.435496,68.5496183 L648.725008,68.5496183 C649.529208,68.5496183 650.076064,67.5725191 650.076064,66.0458015 Z M660.273316,54.9312977 L660.273316,58.6870229 L662.364235,58.6870229 L662.364235,54.9312977 L660.273316,54.9312977 Z M649.722216,53.1908397 L648.435496,53.1908397 L648.435496,59.4503817 L649.722216,53.1908397 Z M697.845527,57.8015267 L700.99799,55.5419847 L697.202167,50.2290076 L694.371384,52.0610687 L694.371384,48.4274809 L689.192338,48.4274809 L689.192338,51.9694656 L686.425891,50.259542 L683.048252,55.2977099 L683.048252,53.5877863 L685.364347,49.4656489 L681.279013,48.2442748 L673.623031,61.1908397 L676.550318,65.1603053 L677.96571,62.6564885 L677.96571,75.5419847 L683.048252,75.5419847 L683.048252,55.7251908 L685.943371,57.8320611 L689.192338,53.0381679 L689.192338,58.351145 L684.624483,58.351145 L684.624483,62.4427481 L689.192338,62.4427481 L689.192338,65.4351145 L683.72378,65.4351145 L683.72378,69.5267176 L689.192338,69.5267176 L689.192338,75.5419847 L694.371384,75.5419847 L694.371384,69.5267176 L700.35463,69.5267176 L700.35463,65.4351145 L694.371384,65.4351145 L694.371384,62.4427481 L699.22875,62.4427481 L699.22875,58.351145 L694.371384,58.351145 L694.371384,52.7938931 L697.845527,57.8015267 Z M708.203619,53.8931298 L716.50296,53.8931298 L705.79102,65.648855 L709.812018,69.129771 L716.309952,61.1908397 L716.309952,75.6030534 L721.907182,75.6030534 L721.907182,61.0992366 L728.50162,69.129771 L732.32961,65.7099237 L723.161733,55.389313 L721.907182,56.6717557 L721.907182,53.8931298 L729.917011,53.8931298 L729.917011,49.648855 L708.203619,49.648855 L708.203619,53.8931298 Z M739.245728,53.0992366 L739.245728,49.2824427 L762.342343,49.2824427 L762.342343,53.0992366 L753.528315,53.0992366 L753.528315,54.5343511 L760.79828,54.5343511 L760.79828,65.0687023 L763.339551,65.0687023 L763.339551,69.221374 L760.79828,69.221374 L760.79828,75.5725191 L754.71853,75.5725191 L755.651402,74.2290076 L755.651402,69.221374 L745.968837,69.221374 L745.968837,75.5725191 L740.789791,75.5725191 L740.789791,69.221374 L738.24852,69.221374 L738.24852,65.0687023 L740.789791,65.0687023 L740.789791,54.5343511 L748.091924,54.5343511 L748.091924,53.0992366 L739.245728,53.0992366 Z M753.399643,63.3282443 L753.399643,65.0687023 L755.812242,65.0687023 L755.812242,63.3282443 L753.399643,63.3282443 Z M755.812242,58.259542 L753.399643,58.259542 L753.399643,60 L755.812242,60 L755.812242,58.259542 Z M745.840165,58.259542 L745.840165,60 L748.220596,60 L748.220596,58.259542 L745.840165,58.259542 Z M745.840165,63.3282443 L745.840165,65.0687023 L748.220596,65.0687023 L748.220596,63.3282443 L745.840165,63.3282443 Z M769.805317,53.3740458 L769.805317,49.3435115 L780.517257,49.3435115 L780.292081,49.8320611 L793.609628,48.6412214 L794.22082,52.4274809 L792.9341,52.5496183 C793.191444,57.7099237 794.22082,67.6335878 796.183067,74.7480916 L792.033397,75.7557252 C790.103317,68.4274809 789.234782,58.2290076 788.880934,52.9465649 L783.9914,53.4045802 C783.734056,60.7938931 783.219368,68.0916031 782.093488,75.7557252 L777.58997,75.1755725 C779.037529,69.0992366 779.391377,58.1679389 779.713057,51.1755725 L776.78577,57.8320611 L776.78577,60.4580153 L778.780185,60.0610687 L778.780185,64.4885496 L776.78577,64.8549618 L776.78577,75.5725191 L770.931196,75.5725191 L771.928404,74.1679389 L771.928404,65.7099237 L769.354965,66.1374046 L769.354965,61.8625954 L771.928404,61.3740458 L771.928404,57.5267176 L774.115827,53.3740458 L769.805317,53.3740458 Z M790.585837,73.4656489 L783.090696,73.4656489 L783.090696,70.2290076 L784.441751,70.2290076 L784.441751,55.1450382 L788.108902,55.1450382 L788.108902,70.2290076 L788.720094,70.2290076 L788.720094,68.7328244 L790.585837,68.7328244 L790.585837,73.4656489 Z M811.109014,48.7633588 L812.524405,52.8244275 L816.062884,52.8244275 L817.510443,48.7633588 L822.979001,48.7633588 L821.56361,52.8244275 L824.104881,52.8244275 L824.104881,65.9236641 L816.899252,65.9236641 L816.899252,67.2061069 L827,67.2061069 L827,71.389313 L816.899252,71.389313 L816.899252,75.5419847 L811.430694,75.5419847 L811.430694,71.389313 L801.329945,71.389313 L801.329945,67.2061069 L811.430694,67.2061069 L811.430694,65.9236641 L804.45024,65.9236641 L804.45024,52.8244275 L807.184519,52.8244275 L805.640456,48.7633588 L811.109014,48.7633588 Z M819.151011,56.3969466 L816.513236,56.3969466 L816.513236,57.9541985 L819.151011,57.9541985 L819.151011,56.3969466 Z M816.513236,62.5343511 L819.151011,62.5343511 L819.151011,61.0076336 L816.513236,61.0076336 L816.513236,62.5343511 Z M809.40411,56.3969466 L809.40411,57.9541985 L811.848877,57.9541985 L811.848877,56.3969466 L809.40411,56.3969466 Z M809.40411,61.0076336 L809.40411,62.5343511 L811.848877,62.5343511 L811.848877,61.0076336 L809.40411,61.0076336 Z" id="频道口号"></path>
        </g>
    </g>
</svg>